<svg width="24" height="24" viewBox="0 0 24 24" fill="none" xmlns="http://www.w3.org/2000/svg">
<path fill-rule="evenodd" clip-rule="evenodd" d="M11.9958 0C9.14698 0.00147807 6.39161 1.01046 4.22235 2.84652C2.05309 4.68259 0.611387 7.22601 0.155028 10.022C-0.301331 12.818 0.25741 15.6842 1.73135 18.1082C3.2053 20.5321 5.49832 22.3558 8.20041 23.253C8.79654 23.3636 9.02108 22.9941 9.02108 22.68C9.02108 22.3658 9.00915 21.455 9.00518 20.4592C5.66688 21.1804 4.96147 19.0505 4.96147 19.0505C4.41701 17.6674 3.63012 17.3039 3.63012 17.3039C2.5412 16.565 3.7116 16.5788 3.7116 16.5788C4.91776 16.6637 5.55164 17.8097 5.55164 17.8097C6.62069 19.6333 8.35938 19.1058 9.04293 18.7976C9.15024 18.0251 9.46221 17.4995 9.80598 17.2012C7.13931 16.9008 4.33752 15.8774 4.33752 11.3054C4.32099 10.1197 4.76351 8.97305 5.57349 8.10268C5.45029 7.80236 5.03896 6.58923 5.69073 4.94143C5.69073 4.94143 6.69819 4.62136 8.99128 6.16444C10.9582 5.62962 13.0333 5.62962 15.0002 6.16444C17.2913 4.62136 18.2968 4.94143 18.2968 4.94143C18.9505 6.58528 18.5392 7.79841 18.416 8.10268C19.2286 8.97319 19.672 10.1218 19.654 11.3094C19.654 15.8912 16.8462 16.9008 14.1756 17.1952C14.6048 17.5667 14.9883 18.2918 14.9883 19.4061C14.9883 21.0026 14.9744 22.2868 14.9744 22.68C14.9744 22.9981 15.191 23.3695 15.799 23.253C18.5014 22.3557 20.7947 20.5317 22.2686 18.1073C23.7425 15.683 24.301 12.8163 23.8441 10.0201C23.3872 7.2238 21.9448 4.68035 19.7748 2.84461C17.6048 1.00886 14.8488 0.000541194 11.9997 0H11.9958Z" fill="#000000"/>
</svg>
