<svg width="24" height="24" viewBox="0 0 24 24" fill="none" xmlns="http://www.w3.org/2000/svg">
<path d="M11.9827 19.2229C7.99584 19.2229 6.1743 17.192 6.1743 15.7023C6.17377 15.347 6.31961 15.0071 6.57753 14.7626C6.83545 14.5182 7.18267 14.3907 7.53749 14.4103C9.24444 14.4103 8.79794 16.9707 11.9827 16.9707C13.6106 16.9707 14.5668 15.9908 14.5668 15.0701C14.5668 14.517 14.2507 13.8848 13.1759 13.6319L9.61981 12.7349C6.76304 12.0079 6.26518 10.4195 6.26518 8.94568C6.26518 5.8874 9.06268 4.78104 11.7258 4.78104C14.1796 4.78104 17.0956 6.13633 17.0956 7.96971C17.0956 8.75997 16.4357 9.18275 15.6692 9.18275C14.2112 9.18275 14.4562 7.136 11.5243 7.136C10.0663 7.136 9.29975 7.81957 9.29975 8.77577C9.29975 9.73198 10.4338 10.056 11.4295 10.2733L14.0531 10.866C16.9296 11.514 17.6962 13.2012 17.6962 14.8173C17.6962 17.3026 15.7719 19.2229 11.9787 19.2229H11.9827ZM22.9909 13.9638C23.1048 13.3114 23.1616 12.6504 23.1608 11.9881C23.1747 8.66163 21.7131 5.50012 19.1699 3.35585C16.6266 1.21157 13.2636 0.305235 9.98727 0.881148C8.98025 0.301352 7.83812 -0.00258049 6.67611 1.65041e-05C4.29097 0.0145868 2.09244 1.2929 0.89988 3.35855C-0.292683 5.42419 -0.300398 7.96733 0.879611 10.0402C0.221175 13.6581 1.37456 17.3693 3.96773 19.9766C6.5609 22.584 10.2657 23.7576 13.8872 23.1189C14.893 23.6982 16.0337 24.0021 17.1944 24C19.5783 23.9846 21.7755 22.7069 22.9678 20.6425C24.1601 18.5781 24.1689 16.0364 22.9909 13.9638Z" fill="#000000"/>
</svg>
