<svg width="24" height="24" viewBox="0 0 24 24" fill="none" xmlns="http://www.w3.org/2000/svg">
<path d="M7.55016 21.5007C16.6045 21.5007 21.5583 13.9974 21.5583 7.49259C21.5583 7.28166 21.5536 7.06603 21.5442 6.85509C22.5079 6.15819 23.3395 5.29499 24 4.30603C23.1025 4.70533 22.1496 4.96611 21.1739 5.07947C22.2013 4.46364 22.9705 3.4962 23.3391 2.3565C22.3726 2.92929 21.3156 3.33334 20.2134 3.55134C19.4708 2.76229 18.489 2.23985 17.4197 2.06478C16.3504 1.88972 15.2532 2.07178 14.2977 2.58283C13.3423 3.09387 12.5818 3.90544 12.1338 4.89204C11.6859 5.87865 11.5754 6.98535 11.8195 8.04103C9.86249 7.94282 7.94794 7.43444 6.19998 6.54883C4.45203 5.66323 2.90969 4.42017 1.67297 2.90025C1.0444 3.98398 0.852057 5.26638 1.13503 6.48682C1.418 7.70727 2.15506 8.77418 3.19641 9.47072C2.41463 9.4459 1.64998 9.23541 0.965625 8.85666V8.91759C0.964925 10.0549 1.3581 11.1573 2.07831 12.0375C2.79852 12.9177 3.80132 13.5213 4.91625 13.7457C4.19206 13.9439 3.43198 13.9727 2.69484 13.8301C3.00945 14.8082 3.62157 15.6636 4.44577 16.2771C5.26997 16.8905 6.26512 17.2313 7.29234 17.252C5.54842 18.6218 3.39417 19.3649 1.17656 19.3613C0.783287 19.3607 0.390399 19.3366 0 19.2892C2.25286 20.7345 4.87353 21.5021 7.55016 21.5007Z" fill="#000000"/>
</svg>
